<svg xmlns="http://www.w3.org/2000/svg" xmlns:svg="http://www.w3.org/2000/svg" style="clip-rule:evenodd;fill-rule:evenodd;stroke-linejoin:round;stroke-miterlimit:2" id="svg6" width="2304.368" height="251.006" version="1.1" viewBox="0 0 2304.368 251.006" xml:space="preserve"><g id="g6" transform="translate(0,-778.99551)"><g id="gamelist-metadata-background-light-base.svg" transform="matrix(1,0,0,0.403846,0,925)"><clipPath id="_clip1"><rect id="rect2" width="1624" height="260" x="0" y="0"/></clipPath></g></g><path style="clip-rule:evenodd;fill:#fff;fill-opacity:.5;fill-rule:evenodd;stroke-width:0;stroke-linejoin:round;stroke-miterlimit:2" id="rect3" width="1737.133" height="108.267" x="0" y="-1.216" d="m 30,-1.2164794 1677.1326,0 a 30,30 45 0 1 30,30.0000004 v 48.266662 a 30,30 135 0 1 -30,29.999997 L 30,107.05018 A 30,30 45 0 1 0,77.050183 V 28.783521 A 30,30 135 0 1 30,-1.2164794 Z" transform="matrix(0.98438083,0,0,0.96982762,0,1.1797753)"/><path style="clip-rule:evenodd;fill:#fff;fill-opacity:.5;fill-rule:evenodd;stroke-width:0;stroke-linejoin:round;stroke-miterlimit:2" id="rect1" width="869.643" height="104.942" x="828.354" y="145.371" d="m 858.35413,145.37056 h 809.64277 a 30,30 45 0 1 30,30 v 44.94206 a 30,30 135 0 1 -30,30 l -809.64277,0 a 30,30 45 0 1 -30,-30 v -44.94206 a 30,30 135 0 1 30,-30 z" transform="matrix(1.011912,0,0,1,-8.2234374,0)"/><path style="clip-rule:evenodd;fill:#fff;fill-opacity:.5;fill-rule:evenodd;stroke-width:0;stroke-linejoin:round;stroke-miterlimit:2" id="rect1-2" width="350" height="105" x="0" y="146.006" d="m 30,146.006 h 290 a 30,30 45 0 1 30,30 v 45 a 30,30 135 0 1 -30,30 l -290,0 a 30,30 45 0 1 -30,-30 v -45 a 30,30 135 0 1 30,-30 z"/><path style="clip-rule:evenodd;fill:#fff;fill-opacity:.5;fill-rule:evenodd;stroke-width:0;stroke-linejoin:round;stroke-miterlimit:2" id="rect1-2-6" width="400" height="105" x="389.998" y="146.006" d="m 419.99799,146.006 340,0 a 30,30 45 0 1 30,30 v 45 a 30,30 135 0 1 -30,30 l -340,0 a 30,30 45 0 1 -30,-30 v -45 a 30,30 135 0 1 30,-30 z"/><rect style="clip-rule:evenodd;fill:#fff;fill-opacity:1;fill-rule:evenodd;stroke-width:1.46921;stroke-linejoin:round;stroke-miterlimit:2" id="rect10" width="1.469" height="58.769" x="935.051" y="168.637"/><path style="clip-rule:evenodd;fill:#fff;fill-opacity:1;fill-rule:nonzero;stroke-width:1.46921;stroke-linejoin:round;stroke-miterlimit:2" id="path16-0" d="m 883.63547,168.63671 c 0.64351,0 1.26352,0.15867 1.81301,0.46721 l 23.46334,9.926 c 1.28409,0.54361 2.14505,1.67197 2.22439,3.16175 0.65527,10.96327 -3.34981,34.87031 -25.64072,44.71992 -0.56124,0.32029 -1.3076,0.50541 -1.86002,0.49366 -0.66409,0.0147 -1.3076,-0.17337 -1.97462,-0.49366 -22.18513,-9.84961 -26.18433,-33.75665 -25.54081,-44.71992 0.0823,-1.48978 0.94911,-2.61814 2.23614,-3.16175 l 23.45453,-9.926 c 0.55242,-0.30854 1.18418,-0.47309 1.82476,-0.46721 z m 1.12542,41.71097 11.26005,-11.45399 c 3.21464,-3.31748 3.01776,-8.83879 -0.69935,-11.94764 -3.0207,-2.72099 -7.64578,-2.21558 -10.5607,0.80219 l -1.11367,1.10191 -1.20475,-1.10191 c -2.81208,-3.01777 -7.54001,-3.52318 -10.66355,-0.80219 -3.61427,3.10885 -3.81114,8.63016 -0.59651,11.94764 l 11.06612,11.45399 c 0.80219,0.70228 1.9041,0.70228 2.51236,0 z"/><rect style="clip-rule:evenodd;fill:#fff;fill-opacity:1;fill-rule:evenodd;stroke-width:1.50397;stroke-linejoin:round;stroke-miterlimit:2" id="rect8-4" width="1.504" height="60.159" x="105.872" y="21.497"/><path style="clip-rule:evenodd;fill:#fff;fill-opacity:.5;fill-rule:evenodd;stroke-width:0;stroke-linejoin:round;stroke-miterlimit:2" id="rect4" width="555.677" height="105.802" x="1747.888" y="145.371" d="m 1777.8875,145.37056 h 495.6768 a 30,30 45 0 1 30,30 v 45.80224 a 30,30 135 0 1 -30,30 h -495.6768 a 30,30 45 0 1 -30,-30 v -45.80224 a 30,30 135 0 1 30,-30 z" transform="matrix(0.99764464,0,0,1,6.228253,0)"/><path style="clip-rule:evenodd;fill:#fff;fill-opacity:.5;fill-rule:evenodd;stroke-width:0;stroke-linejoin:round;stroke-miterlimit:2" id="rect4-82" width="555.677" height="105.802" x="1747.888" y="145.371" d="m 1777.8875,145.37056 h 495.6768 a 30,30 45 0 1 30,30 v 45.80224 a 30,30 135 0 1 -30,30 h -495.6768 a 30,30 45 0 1 -30,-30 v -45.80224 a 30,30 135 0 1 30,-30 z" transform="matrix(0.99764464,0,0,1,6.228453,-145.37056)"/><path id="🎨-Color" d="m 68.833912,26.98528 c 13.83108,0 25.04339,11.133098 25.04339,24.866472 0,13.44726 -10.74999,24.401463 -24.182447,24.852049 l -0.860943,0.01444 H 47.38331 c -13.831078,0 -25.043368,-11.133097 -25.043368,-24.866467 0,-13.447262 10.749982,-24.401465 24.182427,-24.852056 l 0.860941,-0.01444 z m -0.886829,26.642647 c -2.469835,0 -4.472026,1.988054 -4.472026,4.440438 0,2.452391 2.002191,4.440445 4.472026,4.440445 2.469836,0 4.472036,-1.988054 4.472036,-4.440445 0,-2.452384 -2.0022,-4.440438 -4.472036,-4.440438 z M 43.798114,41.194692 c -1.358415,0 -2.481053,1.002311 -2.658716,2.302742 l -0.02453,0.361524 v 5.321425 l -5.366424,0.0025 c -1.481903,0 -2.683228,1.192832 -2.683228,2.664264 0,1.348812 1.009447,2.463529 2.31914,2.639944 l 0.364088,0.02433 5.366424,-0.0025 v 5.335636 c 0,1.471433 1.201326,2.664263 2.683219,2.664263 1.358415,0 2.481064,-1.002309 2.658736,-2.302738 l 0.02453,-0.361525 v -5.335639 l 5.366435,0.0025 c 1.481924,0 2.683217,-1.192834 2.683217,-2.664266 0,-1.348813 -1.009425,-2.463524 -2.319118,-2.639944 l -0.364099,-0.02433 -5.366435,-0.0025 v -5.321423 c 0,-1.471433 -1.201315,-2.664266 -2.683239,-2.664267 z m 31.304223,0 c -2.469846,0 -4.472037,1.988051 -4.472037,4.44044 0,2.452388 2.002191,4.440443 4.472037,4.440443 2.469835,0 4.472035,-1.988055 4.472035,-4.440443 0,-2.452389 -2.0022,-4.44044 -4.472035,-4.44044 z" style="clip-rule:evenodd;fill:#fff;fill-opacity:1;fill-rule:nonzero;stroke:none;stroke-width:3.56496;stroke-linejoin:round;stroke-miterlimit:2"/><rect style="clip-rule:evenodd;fill:#fff;fill-opacity:1;fill-rule:evenodd;stroke-width:1.45184;stroke-linejoin:round;stroke-miterlimit:2" id="rect8" width="1.452" height="58.073" x="489.814" y="168.836"/><path style="clip-rule:evenodd;fill:#fff;fill-opacity:1;fill-rule:nonzero;stroke-width:1.45184;stroke-linejoin:round;stroke-miterlimit:2" id="path14" d="m 430.38191,201.50225 h -4.54134 c -0.74915,-0.003 -1.35602,-0.60977 -1.35892,-1.35892 v -4.54134 c 0.003,-0.74915 0.60977,-1.35602 1.35892,-1.35892 h 4.53553 c 0.74915,0.003 1.35601,0.60977 1.35892,1.35892 v 4.53553 c 0,0.74915 -0.60397,1.35892 -1.35311,1.36473 z m 12.24768,-1.35892 v -4.54134 c -0.003,-0.74915 -0.60977,-1.35602 -1.35892,-1.35892 h -4.54134 c -0.74915,0.003 -1.35601,0.60977 -1.35892,1.35892 v 4.53553 c 0.003,0.74915 0.60977,1.35601 1.35892,1.35892 h 4.53553 c 0.74915,0 1.35892,-0.60396 1.36473,-1.35311 z m 10.88876,0 v -4.54134 c -0.003,-0.74915 -0.60977,-1.35602 -1.35891,-1.35892 h -4.54134 c -0.74915,0.003 -1.35602,0.60977 -1.35892,1.35892 v 4.53553 c 0.003,0.74915 0.60977,1.35601 1.35892,1.35892 h 4.53553 c 0.74915,0 1.35892,-0.60396 1.36472,-1.35311 z m -10.88876,10.88876 v -4.54134 c -0.003,-0.74915 -0.60977,-1.35601 -1.35892,-1.35892 h -4.54134 c -0.74915,0.003 -1.35601,0.60977 -1.35892,1.35892 v 4.53553 c 0.003,0.74915 0.60977,1.35602 1.35892,1.35892 h 4.53553 c 0.74915,0 1.35892,-0.60396 1.36473,-1.35311 z m -10.88876,0 v -4.54134 c -0.003,-0.74915 -0.60978,-1.35601 -1.35892,-1.35892 h -4.54134 c -0.74915,0.003 -1.35602,0.60977 -1.35892,1.35892 v 4.53553 c 0.003,0.74915 0.60977,1.35602 1.35892,1.35892 h 4.53553 c 0.74915,0 1.35892,-0.60396 1.36473,-1.35311 z m 21.77752,0 v -4.54134 c -0.003,-0.74915 -0.60977,-1.35601 -1.35891,-1.35892 h -4.54134 c -0.74915,0.003 -1.35602,0.60977 -1.35892,1.35892 v 4.53553 c 0.003,0.74915 0.60977,1.35602 1.35892,1.35892 h 4.53553 c 0.74915,0 1.35892,-0.60396 1.36472,-1.35311 z m 10.88877,-29.48967 v 39.92546 c -0.003,3.0053 -2.43618,5.43858 -5.44148,5.44148 h -39.92547 c -3.0053,0 -5.44438,-2.43618 -5.44728,-5.44148 v -39.92546 c 0,-1.44603 0.57492,-2.83108 1.59411,-3.85318 1.02209,-1.01918 2.40714,-1.59411 3.85317,-1.59411 h 5.44729 v -5.90026 c 0.003,-0.74624 0.60686,-1.35311 1.35311,-1.35892 h 4.53553 c 0.74915,0.003 1.35601,0.60977 1.35892,1.35892 v 5.90026 h 14.51835 v -5.90026 c 0.003,-0.75205 0.61267,-1.35892 1.36473,-1.35892 h 4.53553 c 0.74915,0.003 1.35601,0.60977 1.35892,1.35892 v 5.90026 h 5.44728 c 1.44603,0 2.83108,0.57493 3.85317,1.59411 1.01919,1.0221 1.59412,2.40715 1.59412,3.85318 z m -5.44148,39.2402 v -33.79873 h -39.92547 v 33.79873 c 0.003,0.37457 0.30489,0.67655 0.67946,0.67946 h 38.58978 c 0.36586,-0.0145 0.65333,-0.3136 0.65623,-0.67946 z"/><rect style="clip-rule:evenodd;fill:#fff;fill-opacity:1;fill-rule:evenodd;stroke-width:1.52158;stroke-linejoin:round;stroke-miterlimit:2" id="rect13" width="1.522" height="60.863" x="1848.902" y="22.896"/><rect style="clip-rule:evenodd;fill:#fff;fill-opacity:1;fill-rule:evenodd;stroke-width:1.52158;stroke-linejoin:round;stroke-miterlimit:2" id="rect14" width="1.522" height="60.863" x="1848.902" y="167.446"/><path style="clip-rule:evenodd;fill:#fff;fill-opacity:1;fill-rule:nonzero;stroke-width:1.52158;stroke-linejoin:round;stroke-miterlimit:2" id="path19" d="m 1790.3216,28.98226 c 6.6782,0 12.1726,5.49442 12.1726,12.17262 0,6.67819 -5.4944,12.1726 -12.1726,12.1726 -6.6782,0 -12.1726,-5.49441 -12.1726,-12.1726 0,-6.6782 5.4944,-12.17262 12.1726,-12.17262 z m -4.3456,28.90995 h 8.6912 c 1.9598,0 3.842,0.33321 5.5918,0.94185 -0.5219,1.62657 -0.8079,3.34747 -0.8079,5.14444 0,5.65875 2.8058,10.66017 7.1133,13.69419 h -34.7208 c -1.5596,0 -2.824,-1.26443 -2.824,-2.82404 0,-9.36682 7.5896,-16.95644 16.9564,-16.95644 z m 16.5182,6.08629 c 0,-7.51201 6.1822,-13.69417 13.6942,-13.69417 7.512,0 13.6942,6.18216 13.6942,13.69418 0,7.51202 -6.1822,13.69418 -13.6942,13.69418 -7.512,0 -13.6942,-6.18216 -13.6942,-13.69419 z m 13.6942,-7.60787 c -0.8369,0 -1.5216,0.68471 -1.5216,1.52158 v 6.08629 c 0,0.83688 0.6847,1.52159 1.5216,1.52159 h 4.5647 c 0.8369,0 1.5216,-0.68471 1.5216,-1.52159 0,-0.83686 -0.6847,-1.52157 -1.5216,-1.52157 h -3.0431 v -4.56472 c 0,-0.83687 -0.6847,-1.52158 -1.5216,-1.52158 z"/><path style="clip-rule:evenodd;fill:#fff;fill-opacity:1;fill-rule:nonzero;stroke-width:1.52158;stroke-linejoin:round;stroke-miterlimit:2" id="path20" d="m 1772.8235,171.2496 c 2.1043,0 3.8039,1.6996 3.8039,3.80394 v 39.94137 c 0,1.04684 0.8567,1.90197 1.902,1.90197 h 47.5493 c 2.1043,0 3.8039,1.6996 3.8039,3.80393 0,2.10434 -1.6996,3.80394 -3.8039,3.80394 h -47.5493 c -5.254,0 -9.5098,-4.25584 -9.5098,-9.50984 v -39.94137 c 0,-2.10434 1.6996,-3.80394 3.8039,-3.80394 z m 15.2158,22.82364 c 2.1043,0 3.8039,1.6996 3.8039,3.80394 v 7.60788 c 0,2.10434 -1.6996,3.80394 -3.8039,3.80394 -2.1044,0 -3.804,-1.6996 -3.804,-3.80394 v -7.60788 c 0,-2.10434 1.6996,-3.80394 3.804,-3.80394 z m 15.2157,-7.60788 v 19.0197 c 0,2.10434 -1.6996,3.80394 -3.8039,3.80394 -2.1044,0 -3.804,-1.6996 -3.804,-3.80394 v -19.0197 c 0,-2.10434 1.6996,-3.80394 3.804,-3.80394 2.1043,0 3.8039,1.6996 3.8039,3.80394 z m 7.6079,3.80394 c 2.1043,0 3.8039,1.6996 3.8039,3.80394 v 11.41182 c 0,2.10434 -1.6996,3.80394 -3.8039,3.80394 -2.1043,0 -3.8039,-1.6996 -3.8039,-3.80394 v -11.41182 c 0,-2.10434 1.6996,-3.80394 3.8039,-3.80394 z m 15.2158,-11.41182 v 26.62758 c 0,2.10434 -1.6996,3.80394 -3.804,3.80394 -2.1043,0 -3.8039,-1.6996 -3.8039,-3.80394 v -26.62758 c 0,-2.10434 1.6996,-3.80394 3.8039,-3.80394 2.1044,0 3.804,1.6996 3.804,3.80394 z"/></svg>