<svg xmlns="http://www.w3.org/2000/svg" xmlns:svg="http://www.w3.org/2000/svg" id="Layer_1" width="504" height="116.145" x="0" y="0" enable-background="new -1 -1 568.929 116.145" version="1.1" viewBox="-1 -1 504 116.145" xml:space="preserve"><metadata id="metadata23"/><g style="fill:#fff;fill-opacity:1" id="g68869" transform="matrix(0.99694189,0,0,1.0000461,-0.00147969,-0.00263122)"><path id="path63248" d="m 40.539118,78.175384 v 7.861854 H -0.03189119 V 28.107758 H 39.389798 v 7.861859 H 11.576245 v 16.79955 h 25.629844 v 7.696345 H 11.576245 v 17.709872 z" style="font-weight:700;font-size:97.196px;line-height:1.25;font-family:Akrobat;-inkscape-font-specification:'Akrobat Bold';text-align:center;letter-spacing:0;word-spacing:0;baseline-shift:baseline;text-anchor:middle;stroke:#fff;stroke-width:1.83622;stroke-linecap:butt;stroke-linejoin:miter;stroke-miterlimit:4;stroke-dasharray:none;stroke-opacity:1;stop-color:#000;fill:#fff;fill-opacity:1"/><path id="path63250" d="m 115.93437,28.107758 v 57.92948 h -11.37829 l 0.029,-22.52118 c 0.14966,-8.110128 0.31665,-14.194329 0.4094,-18.723835 l 0.0101,-0.712234 c -1.53242,3.089571 -4.1261,8.661592 -7.803924,15.723471 L 90.18959,72.961728 H 78.696387 L 71.685532,59.80346 C 68.007706,52.741581 65.542794,47.348995 64.010367,44.259423 l 0.01988,0.582823 c 0.185753,8.179934 0.146398,14.188823 0.29964,18.602497 V 86.037238 H 52.951609 v -57.92948 h 11.838 L 78.35159,51.610577 c 1.762291,3.144743 3.716136,6.979123 5.861534,11.50314 h 0.459728 C 86.81825,58.5897 88.772094,54.75532 90.534386,51.610577 L 104.09636,28.107758 Z" style="font-weight:700;font-size:97.196px;line-height:1.25;font-family:Akrobat;-inkscape-font-specification:'Akrobat Bold';text-align:center;letter-spacing:0;word-spacing:0;baseline-shift:baseline;text-anchor:middle;stroke:#fff;stroke-width:1.83622;stroke-linecap:butt;stroke-linejoin:round;stroke-miterlimit:4;stroke-dasharray:none;stroke-opacity:1;stop-color:#000;fill:#fff;fill-opacity:1"/><path id="path63252" d="m 154.20669,86.864802 q -10.8036,0 -17.2398,-4.799868 -6.32125,-4.882629 -6.32125,-13.654807 V 28.107758 h 11.838 v 40.302369 q 0,5.130897 3.10315,7.779102 3.10318,2.565449 8.6199,2.565449 5.63168,0 8.73485,-2.565449 3.10317,-2.648205 3.10317,-7.779102 V 28.107758 h 11.72306 v 40.302369 q 0,8.772178 -6.32126,13.654807 -6.32127,4.799868 -17.23982,4.799868 z" style="font-weight:700;font-size:97.196px;line-height:1.25;font-family:Akrobat;-inkscape-font-specification:'Akrobat Bold';text-align:center;letter-spacing:0;word-spacing:0;baseline-shift:baseline;text-anchor:middle;stroke:#fff;stroke-width:1.83622;stroke-linecap:butt;stroke-linejoin:miter;stroke-miterlimit:4;stroke-dasharray:none;stroke-opacity:1;stop-color:#000;fill:#fff;fill-opacity:1"/><path id="path63254" d="m 230.86619,78.092626 v 7.944612 h -38.27237 v -57.92948 h 11.60814 v 49.984868 z" style="font-weight:700;font-size:97.196px;line-height:1.25;font-family:Akrobat;-inkscape-font-specification:'Akrobat Bold';text-align:center;letter-spacing:0;word-spacing:0;baseline-shift:baseline;text-anchor:middle;stroke:#fff;stroke-width:1.83622;stroke-linecap:butt;stroke-linejoin:miter;stroke-miterlimit:4;stroke-dasharray:none;stroke-opacity:1;stop-color:#000;fill:#fff;fill-opacity:1"/><path id="path63256" d="m 273.71105,74.368588 h -21.26243 l -3.67782,11.66865 H 236.588 l 20.22805,-57.92948 h 12.52759 l 20.22804,57.92948 h -12.06786 z m -2.41357,-7.779102 -5.05701,-15.558205 q -1.72397,-5.792946 -2.98823,-12.41346 h -0.3448 q -1.49411,7.861858 -2.98822,12.41346 l -4.9421,15.558205 z" style="font-weight:700;font-size:97.196px;line-height:1.25;font-family:Akrobat;-inkscape-font-specification:'Akrobat Bold';text-align:center;letter-spacing:0;word-spacing:0;baseline-shift:baseline;text-anchor:middle;stroke:#fff;stroke-width:1.83622;stroke-linecap:butt;stroke-linejoin:miter;stroke-miterlimit:4;stroke-dasharray:none;stroke-opacity:1;stop-color:#000;fill:#fff;fill-opacity:1"/><path id="path63258" d="M 333.47563,36.052373 H 316.69555 V 86.037238 H 304.85756 V 36.052373 h -16.66514 v -7.944615 h 45.28321 z" style="font-weight:700;font-size:97.196px;line-height:1.25;font-family:Akrobat;-inkscape-font-specification:'Akrobat Bold';text-align:center;letter-spacing:0;word-spacing:0;baseline-shift:baseline;text-anchor:middle;stroke:#fff;stroke-width:1.83622;stroke-linecap:butt;stroke-linejoin:miter;stroke-miterlimit:4;stroke-dasharray:none;stroke-opacity:1;stop-color:#000;fill:#fff;fill-opacity:1"/><path id="path63260" d="m 365.65638,87.113072 q -11.4932,0 -18.04433,-5.130894 -6.55113,-5.213654 -6.55113,-14.316859 v -21.18564 q 0,-9.103204 6.55113,-14.2341 6.55113,-5.213654 18.04433,-5.213654 11.49321,0 18.04433,5.213654 6.55112,5.130896 6.55112,14.2341 v 21.18564 q 0,9.103205 -6.55112,14.316859 -6.55112,5.130894 -18.04433,5.130894 z m 0,-8.192881 q 6.20632,0 9.42443,-2.896475 3.2181,-2.896474 3.2181,-8.358397 v -21.18564 q 0,-5.461921 -3.2181,-8.358396 -3.21811,-2.896475 -9.42443,-2.896475 -6.20632,0 -9.42442,2.896475 -3.2181,2.896475 -3.2181,8.358396 v 21.18564 q 0,5.461923 3.2181,8.358397 3.2181,2.896475 9.42442,2.896475 z" style="font-weight:700;font-size:97.196px;line-height:1.25;font-family:Akrobat;-inkscape-font-specification:'Akrobat Bold';text-align:center;letter-spacing:0;word-spacing:0;baseline-shift:baseline;text-anchor:middle;stroke:#fff;stroke-width:1.83622;stroke-linecap:butt;stroke-linejoin:miter;stroke-miterlimit:4;stroke-dasharray:none;stroke-opacity:1;stop-color:#000;fill:#fff;fill-opacity:1"/><path id="path63262" d="m 422.89253,65.017115 h -7.24071 v 21.020123 h -11.60814 v -57.92948 h 20.8027 q 11.4932,0 17.81447,4.799872 6.32125,4.717115 6.32125,13.323781 0,6.703269 -3.79275,11.25487 -3.79274,4.551602 -10.68867,6.372243 l 17.46967,22.178714 H 439.09796 Z M 415.65182,57.0725 h 8.9647 q 6.09141,0 9.19456,-2.73096 3.2181,-2.730963 3.2181,-7.944617 0,-5.130897 -3.10316,-7.696345 -3.10317,-2.648205 -9.19457,-2.648205 h -9.07963 z" style="font-weight:700;font-size:97.196px;line-height:1.25;font-family:Akrobat;-inkscape-font-specification:'Akrobat Bold';text-align:center;letter-spacing:0;word-spacing:0;baseline-shift:baseline;text-anchor:middle;stroke:#fff;stroke-width:1.83622;stroke-linecap:butt;stroke-linejoin:miter;stroke-miterlimit:4;stroke-dasharray:none;stroke-opacity:1;stop-color:#000;fill:#fff;fill-opacity:1"/><path id="path63264" d="m 480.12862,87.113072 q -10.80362,0 -17.12488,-4.5516 -6.32126,-4.551602 -6.4362,-12.413461 h 11.83801 q 0.11492,4.38609 3.10316,6.620513 3.10316,2.234424 8.61991,2.234424 5.63166,0 8.50496,-2.151668 2.98824,-2.151666 2.98824,-5.792948 0,-3.475769 -3.5629,-5.875704 -3.56288,-2.482693 -10.8036,-5.544679 -6.32127,-2.813718 -10.11403,-4.965385 -3.79275,-2.151666 -6.55112,-5.379166 -2.64345,-3.2275 -2.64345,-7.61359 0,-4.13782 2.64345,-7.448075 2.75837,-3.393014 7.70044,-5.296412 5.05702,-1.903396 11.72307,-1.903396 10.22895,0 16.20541,4.386089 5.97647,4.386088 6.20634,11.834166 h -11.838 q -0.11494,-4.055065 -2.8733,-6.123973 -2.75837,-2.068911 -7.58551,-2.068911 -4.82715,0 -7.58553,1.820642 -2.75836,1.82064 -2.75836,4.965383 0,2.399936 1.83892,4.220577 1.8389,1.820641 4.48234,3.2275 2.75837,1.324102 7.70045,3.475769 6.43619,2.73096 10.34387,4.882628 3.90771,2.151665 6.66607,5.544678 2.75836,3.310256 2.75836,7.944615 0,4.38609 -2.75836,8.027372 -2.75836,3.641281 -8.16017,5.792948 -5.28686,2.151664 -12.52759,2.151664 z" style="font-weight:700;font-size:97.196px;line-height:1.25;font-family:Akrobat;-inkscape-font-specification:'Akrobat Bold';text-align:center;letter-spacing:0;word-spacing:0;baseline-shift:baseline;text-anchor:middle;stroke:#fff;stroke-width:1.83622;stroke-linecap:butt;stroke-linejoin:miter;stroke-miterlimit:4;stroke-dasharray:none;stroke-opacity:1;stop-color:#000;fill:#fff;fill-opacity:1"/></g></svg>