<svg xmlns="http://www.w3.org/2000/svg" xmlns:svg="http://www.w3.org/2000/svg" xmlns:xlink="http://www.w3.org/1999/xlink" id="Layer_1" width="4689" height="982" x="0" y="0" version="1.1" viewBox="0 0 4689 982" xml:space="preserve"><defs id="defs148"><linearGradient id="linearGradient34773" x1="15.196" x2="3854.196" y1="312.371" y2="312.371" gradientTransform="translate(1160.9631,-2.2896484e-5)" gradientUnits="userSpaceOnUse"><stop id="stop34769" offset="0" style="stop-color:#f3dd42;stop-opacity:1"/><stop id="stop34771" offset="1" style="stop-color:#d7861b;stop-opacity:1"/></linearGradient><linearGradient id="SVGID_1_" x1="15.196" x2="3854.196" y1="312.371" y2="312.371" gradientTransform="translate(1160.9631,-2.2896484e-5)" gradientUnits="userSpaceOnUse"><stop id="stop4" offset="0" style="stop-color:#ff2422"/><stop id="stop6" offset="1" style="stop-color:#c24fff"/></linearGradient><linearGradient id="linearGradient6574" x1="15.196" x2="3588.224" y1="312.371" y2="316.503" gradientTransform="translate(833.68668,630.53366)" gradientUnits="userSpaceOnUse" xlink:href="#linearGradient34773"/></defs><style id="style2" type="text/css"/><g style="fill:#fff;fill-opacity:1;stroke:none;stroke-opacity:1" id="g1579" transform="matrix(6.3149202,0,0,6.3149202,-1808.9749,-4903.7453)"><polygon style="fill:#fff;fill-opacity:1;stroke:none;stroke-opacity:1" id="polygon4" fill-rule="evenodd" points="5.745 0 15.875 0 12.246 21.317 2.419 21.317" clip-rule="evenodd" transform="matrix(4.2249535,0,0,4.2249535,286.4604,776.57085)"/><polygon style="fill:#fff;fill-opacity:1;stroke:none;stroke-opacity:1" id="polygon6" fill-rule="evenodd" points="11.49 26.911 19.806 26.911 18.596 35.528 0 35.528 1.814 24.493 11.792 24.493" clip-rule="evenodd" transform="matrix(4.2249535,0,0,4.2249535,286.4604,776.57085)"/><polygon style="fill:#fff;fill-opacity:1;stroke:none;stroke-opacity:1" id="polygon8" fill-rule="evenodd" points="131.834 1.814 141.056 1.814 140.149 7.861 130.927 7.861" clip-rule="evenodd" transform="matrix(4.2249535,0,0,4.2249535,286.4604,776.57085)"/><polygon style="fill:#fff;fill-opacity:1;stroke:none;stroke-opacity:1" id="polygon10" fill-rule="evenodd" points="130.549 10.432 139.771 10.432 138.108 21.62 128.886 21.62" clip-rule="evenodd" transform="matrix(4.2249535,0,0,4.2249535,286.4604,776.57085)"/><polygon style="fill:#fff;fill-opacity:1;stroke:none;stroke-opacity:1" id="polygon12" fill-rule="evenodd" points="128.433 24.493 137.654 24.493 135.991 35.528 126.769 35.528" clip-rule="evenodd" transform="matrix(4.2249535,0,0,4.2249535,286.4604,776.57085)"/><polygon style="fill:#fff;fill-opacity:1;stroke:none;stroke-opacity:1" id="polygon14" fill-rule="evenodd" points="86.251 24.493 95.474 24.493 93.811 35.528 84.588 35.528" clip-rule="evenodd" transform="matrix(4.2249535,0,0,4.2249535,286.4604,776.57085)"/><path style="stroke-width:4.22495;fill:#fff;fill-opacity:1;stroke:none;stroke-opacity:1" id="path16" fill-rule="evenodd" d="m 412.61076,880.05129 c -0.32786,3.01192 -0.55495,6.84903 -0.21674,10.29832 0.46415,4.20844 2.09802,7.57522 6.09191,7.57522 5.26058,0 8.42929,-4.62933 10.24674,-10.09207 1.02738,-2.84685 1.76181,-5.19867 2.29402,-7.88051 l 36.31027,-0.0989 -7.39777,46.95309 h -32.28131 l 1.89587,-9.34935 c -7.99809,10.17453 -14.40363,12.62534 -27.86446,12.62534 -25.70664,0 -29.81397,-28.51844 -28.18424,-50.02277 l 39.10558,-0.008 z" clip-rule="evenodd"/><path style="stroke-width:4.22495;fill:#fff;fill-opacity:1;stroke:none;stroke-opacity:1" id="path18" fill-rule="evenodd" d="m 432.64629,867.91279 c 0.0296,-2.6736 -0.004,-4.25796 -0.13393,-6.13113 -0.3756,-4.84387 -1.89177,-9.04613 -6.72735,-9.04613 -5.04806,0 -8.06827,5.0481 -10.18282,11.15033 -0.30124,0.94896 -0.56526,1.86493 -1.75145,4.01041 l -39.44387,-0.0254 c 5.23581,-22.48407 17.01946,-48.78689 42.69514,-49.31708 7.00996,-0.1445 20.10359,0.81283 25.22593,10.82851 l 1.11813,0.21674 1.65656,-9.05023 h 31.63557 l -7.2864,47.36363 z" clip-rule="evenodd"/><path style="stroke-width:4.22495;fill:#fff;fill-opacity:1;stroke:none;stroke-opacity:1" id="path20" fill-rule="evenodd" d="m 479.0465,867.91279 c -2.35592,-4.70356 -3.33995,-10.33133 -2.40336,-17.02978 3.20378,-22.92781 20.43986,-34.56502 46.30946,-34.56502 11.14619,0 18.89471,2.61791 27.8067,8.08479 l -4.2435,29.44057 c -6.46946,-5.41322 -18.18505,-8.28898 -25.12694,-8.28898 -2.94386,0 -6.60149,0.69522 -7.50094,4.18989 -1.30999,5.07282 4.3735,7.86196 11.2865,10.30449 5.71644,2.02173 10.57476,4.52201 14.4531,7.81452 l -60.58102,0.0494 z" clip-rule="evenodd"/><path style="stroke-width:4.22495;fill:#fff;fill-opacity:1;stroke:none;stroke-opacity:1" id="path22" fill-rule="evenodd" d="m 548.46528,880.15028 c 1.75973,4.82735 2.28578,10.63666 1.42964,16.76778 -3.50084,25.02791 -24.97839,34.4433 -47.90206,34.4433 -15.14422,0 -21.51469,-2.82214 -33.55619,-9.97651 l 5.38432,-32.94145 c 4.10121,5.25647 17.99941,13.64034 27.29925,13.16174 3.57097,-0.18167 10.78309,-2.64059 11.34011,-6.63449 0.55905,-3.99393 -1.15941,-6.93982 -10.13123,-9.79496 -4.19812,-1.32858 -8.18792,-2.73963 -11.72175,-4.91814 l 57.85791,-0.10731 z" clip-rule="evenodd"/><path style="stroke-width:4.22495;fill:#fff;fill-opacity:1;stroke:none;stroke-opacity:1" id="path24" fill-rule="evenodd" d="m 591.11297,880.06777 c -1.55136,9.39063 -1.90617,24.13669 6.65515,25.17645 5.51428,0.67663 11.2617,-3.79587 13.00491,-15.12567 h 34.63309 c -6.03628,35.59853 -26.89901,42.05975 -51.71652,41.8782 -27.03928,-0.19815 -43.22736,-22.21404 -41.24281,-51.9785 l 38.66618,0.0494 z" clip-rule="evenodd"/><path style="stroke-width:4.22495;fill:#fff;fill-opacity:1;stroke:none;stroke-opacity:1" id="path26" fill-rule="evenodd" d="m 954.57246,867.90455 c 5.07898,-27.90574 18.67395,-50.70152 57.54844,-51.58656 7.6289,-0.17322 13.694,2.40958 16.8668,4.25385 l -5.0254,30.21628 c -15.4268,-6.25492 -23.8189,6.02385 -26.78135,17.16594 z" clip-rule="evenodd"/><path style="stroke-width:4.22495;fill:#fff;fill-opacity:1;stroke:none;stroke-opacity:1" id="path28" fill-rule="evenodd" d="m 996.28973,880.06777 c 1.03972,6.95634 5.04597,13.44228 12.84817,13.44228 l 8.4829,-0.64363 -4.9429,33.8161 c -6.0238,1.59264 -11.7713,2.54985 -19.56926,2.44257 -29.67781,-0.4208 -41.84107,-22.23876 -40.11644,-49.09856 l 43.29753,0.0422 z" clip-rule="evenodd"/><path style="stroke-width:4.22495;fill:#fff;fill-opacity:1;stroke:none;stroke-opacity:1" id="path30" fill-rule="evenodd" d="m 777.05013,880.06777 c -4.6458,7.52569 -9.2916,13.07095 -19.82922,12.11374 l 1.81952,-12.14674 -41.03237,0.0254 -7.41843,46.61476 h 41.51925 c 34.35661,0 57.94456,-15.02664 69.50543,-46.71379 l -44.56418,0.10731 z" clip-rule="evenodd"/><path style="stroke-width:4.22495;fill:#fff;fill-opacity:1;stroke:none;stroke-opacity:1" id="path32-3" fill-rule="evenodd" d="m 760.58765,867.93754 8.13223,-52.40138 c 16.60685,0 20.43572,12.77385 17.24224,35.7677 -0.79627,5.74948 -1.91441,11.81457 -3.41211,16.72444 l 43.2026,0.0494 c 1.56374,-6.46946 2.24865,-13.65062 3.00783,-21.24442 5.74742,-57.48865 -25.54779,-70.26254 -56.84709,-70.26254 h -38.96531 l -5.42974,40.87972 c -6.3869,1.27699 -22.0366,3.19347 -30.34209,14.3727 -1.59674,1.59674 -2.55395,0.95721 -2.23623,-0.95928 l 1.59674,-10.21995 h -36.72495 l -7.02643,47.26874 h 38.96526 c 1.59264,-6.70876 19.16084,-16.60893 30.02028,-11.49897 l -1.82365,11.45769 40.64042,0.0659 z" clip-rule="evenodd"/><path style="stroke-width:4.22495;fill:#fff;fill-opacity:1;stroke:none;stroke-opacity:1" id="path34" fill-rule="evenodd" d="m 878.907,867.91279 c -2.35591,-4.70356 -3.34202,-10.33133 -2.40543,-17.02978 3.20585,-22.92781 20.43986,-34.56502 46.30946,-34.56502 11.14826,0 18.89674,2.61791 27.80877,8.08479 l -4.24557,29.44057 c -6.46946,-5.41322 -18.18711,-8.28898 -25.12694,-8.28898 -2.94179,0 -6.60149,0.69522 -7.50094,4.18989 -1.30792,5.07282 4.3735,7.86196 11.28853,10.30449 5.71442,2.02173 10.57476,4.52201 14.44904,7.81452 l -60.57692,0.0494 z" clip-rule="evenodd"/><path style="stroke-width:4.22495;fill:#fff;fill-opacity:1;stroke:none;stroke-opacity:1" id="path36" fill-rule="evenodd" d="m 948.32164,880.15028 c 1.7618,4.82735 2.28578,10.63666 1.43171,16.76778 -3.49877,25.02791 -24.97839,34.4433 -47.90206,34.4433 -15.14629,0 -21.51672,-2.82214 -33.55619,-9.97651 l 5.38433,-32.94145 c 4.10116,5.25647 17.99733,13.64034 27.29717,13.16174 3.57304,-0.18167 10.78516,-2.64059 11.34218,-6.63449 0.56112,-3.99393 -1.15941,-6.93982 -10.12916,-9.79496 -4.20019,-1.32858 -8.18998,-2.73963 -11.72179,-4.91814 l 57.85381,-0.10731 z" clip-rule="evenodd"/><polygon style="fill:#fff;fill-opacity:1;stroke:none;stroke-opacity:1" id="polygon38" fill-rule="evenodd" points="171.859 7.106 171.542 7.106 171.542 5.043 170.749 5.043 170.749 4.762 172.652 4.762 172.652 5.043 171.859 5.043" clip-rule="evenodd" transform="matrix(4.2249535,0,0,4.2249535,286.4604,776.57085)"/><path style="stroke-width:4.22495;fill:#fff;fill-opacity:1;stroke:none;stroke-opacity:1" id="path40" fill-rule="evenodd" d="m 1025.2992,806.5932 v -5.84644 c 0,-0.29068 0.03,-1.54515 0.03,-2.46936 h -0.03 l -2.7851,8.3158 h -1.3244 l -2.785,-8.3014 h -0.025 c 0,0.90981 0.025,2.16407 0.025,2.45496 v 5.84644 h -1.2955 v -9.90223 h 1.9185 l 2.8263,8.36942 h 0.025 l 2.814,-8.36942 h 1.902 v 9.90223 z" clip-rule="evenodd"/><path style="stroke-width:4.22495;fill:#fff;fill-opacity:1;stroke:none;stroke-opacity:1" id="path42" fill-rule="evenodd" d="m 606.75848,816.31799 c -31.26423,0.21252 -46.64982,22.15215 -52.72112,51.57828 l 94.39923,0.0254 c 1.04386,-13.65269 0.55081,-26.87426 -3.57511,-32.87542 -7.1956,-10.46952 -16.66875,-18.87198 -38.103,-18.72758 z m 0.60861,24.64834 c 7.3627,0 8.55925,7.99192 7.91764,14.09005 h -19.14018 c 0.58381,-5.67728 4.28271,-14.09005 11.22254,-14.09005 z" clip-rule="evenodd"/></g></svg>