<svg xmlns="http://www.w3.org/2000/svg" xmlns:svg="http://www.w3.org/2000/svg" id="Layer_1" x="0" y="0" version="1.1" viewBox="0 0 3840 1650.9" xml:space="preserve" style="enable-background:new 0 0 3840 1650.9"><style id="style2" type="text/css">.st0{fill:#887ec9}</style><g id="g148" transform="translate(2.4277941,-72.833824)" style="fill:#fff;fill-opacity:1"><rect id="rect4" width="124" height="437.2" x="3414.2" y="699.1" class="st0" transform="matrix(0.8,0,0,0.8,410.30483,288.9075)" style="fill:#fff;fill-opacity:1;stroke-width:1.25"/><rect id="rect6" width="124" height="437.2" x="1323.5" y="699.1" class="st0" transform="matrix(0.8,0,0,0.8,410.30483,288.9075)" style="fill:#fff;fill-opacity:1;stroke-width:1.25"/><rect id="rect8" width="124" height="437.2" x="1110.1" y="699.1" class="st0" transform="matrix(0.8,0,0,0.8,410.30483,288.9075)" style="fill:#fff;fill-opacity:1;stroke-width:1.25"/><rect id="rect10" width="124" height="437.2" x="189.7" y="699.1" class="st0" transform="matrix(0.8,0,0,0.8,410.30483,288.9075)" style="fill:#fff;fill-opacity:1;stroke-width:1.25"/><rect id="rect12" width="98.1" height="425.8" x="3578.1" y="535.3" class="st0" transform="matrix(0,0.8,-0.8,0,3910.5064,-2014.2823)" style="fill:#fff;fill-opacity:1;stroke-width:1.25"/><rect id="rect14" width="98.1" height="338.1" x="3534.3" y="748.6" class="st0" transform="matrix(0,0.8,-0.8,0,4011.1075,-1843.5673)" style="fill:#fff;fill-opacity:1;stroke-width:1.25"/><rect id="rect16" width="98.1" height="425.8" x="3578.1" y="874.4" class="st0" transform="matrix(0,0.8,-0.8,0,4181.822,-1742.9667)" style="fill:#fff;fill-opacity:1;stroke-width:1.25"/><rect id="rect18" width="98.1" height="401.6" x="1475.3" y="547.4" class="st0" transform="matrix(0,0.8,-0.8,0,2228.2746,-332.04954)" style="fill:#fff;fill-opacity:1;stroke-width:1.25"/><rect id="rect20" width="98.1" height="362.9" x="1455.9" y="736.3" class="st0" transform="matrix(0,0.8,-0.8,0,2348.4544,-180.91378)" style="fill:#fff;fill-opacity:1;stroke-width:1.25"/><path id="path22" d="m 1855.2,699.1 c -50.4,0 -91.2,40.8 -91.2,91.2 v 6.9 247.9 c 0,50.4 40.8,91.2 91.2,91.2 h 335.3 c 50.4,0 91.2,-40.8 91.2,-91.2 V 790.3 c 0,-50.4 -40.8,-91.2 -91.2,-91.2 z m 302.5,339.1 H 1888 v -241 h 269.7 z" class="st0" transform="matrix(0.8,0,0,0.8,410.30483,288.9075)" style="fill:#fff;fill-opacity:1;stroke-width:1.25"/><path id="path24" d="m 2864.9,790.3 v 254.8 c 0,50.4 40.8,91.2 91.2,91.2 h 321 c 50.4,0 91.2,-40.8 91.2,-91.2 V 966.8 H 3237 v 71.5 H 2988.9 V 797.2 H 3237 v 71.5 h 131.3 v -78.3 c 0,-50.4 -40.8,-91.2 -91.2,-91.2 h -321 c -50.4,-0.1 -91.2,40.7 -91.2,91.1 z" class="st0" transform="matrix(0.8,0,0,0.8,410.30483,288.9075)" style="fill:#fff;fill-opacity:1;stroke-width:1.25"/><rect id="rect26" width="98.1" height="503.4" x="202.7" y="496.4" class="st0" transform="matrix(0,0.8,-0.8,0,1210.1753,686.0487)" style="fill:#fff;fill-opacity:1;stroke-width:1.25"/><path id="path28" d="m 1182.5,1252.4 c 0,10.7 -8.6,19.3 -19.4,19.3 -10.7,0 -19.4,-8.7 -19.4,-19.3 0,-10.8 8.7,-19.4 19.4,-19.4 10.7,0 19.4,8.6 19.4,19.4 z" class="st0" transform="matrix(0.8,0,0,0.8,410.30483,288.9075)" style="fill:#fff;fill-opacity:1;stroke-width:1.25"/><path id="path30" d="m 2208.2,1252.4 c 0,10.7 -8.7,19.3 -19.4,19.3 -10.7,0 -19.4,-8.7 -19.4,-19.3 0,-10.8 8.7,-19.4 19.4,-19.4 10.7,0 19.4,8.6 19.4,19.4 z" class="st0" transform="matrix(0.8,0,0,0.8,410.30483,288.9075)" style="fill:#fff;fill-opacity:1;stroke-width:1.25"/><rect id="rect32" width="40.6" height="23.4" x="103.6" y="1193.9" class="st0" transform="matrix(0.8,0,0,0.8,410.30483,288.9075)" style="fill:#fff;fill-opacity:1;stroke-width:1.25"/><path id="path34" d="m 303.7,1222 v 88.8 h 30 v -93.5 h 64.1 v 93.5 h 30 V 1222 c 0,-15.5 -12.6,-28.1 -28.1,-28.1 h -67.9 c -15.5,0 -28.1,12.6 -28.1,28.1 z" class="st0" transform="matrix(0.8,0,0,0.8,410.30483,288.9075)" style="fill:#fff;fill-opacity:1;stroke-width:1.25"/><rect id="rect36" width="124" height="23.4" x="303.7" y="1240.6" class="st0" transform="matrix(0.8,0,0,0.8,410.30483,288.9075)" style="fill:#fff;fill-opacity:1;stroke-width:1.25"/><g id="g42" transform="matrix(0.8,0,0,0.8,410.30483,288.9075)" style="fill:#fff;fill-opacity:1;stroke-width:1.25"><path id="path38" d="m 1938,1222 v 88.8 h 30 v -93.5 h 64.1 v 93.5 h 30 V 1222 c 0,-15.5 -12.6,-28.1 -28.1,-28.1 h -67.9 c -15.5,0 -28.1,12.6 -28.1,28.1 z" class="st0" style="fill:#fff;fill-opacity:1;stroke-width:1.25"/><rect id="rect40" width="124" height="23.4" x="1938" y="1240.6" class="st0" style="fill:#fff;fill-opacity:1;stroke-width:1.25"/></g><g id="g48" transform="matrix(0.8,0,0,0.8,410.30483,288.9075)" style="fill:#fff;fill-opacity:1;stroke-width:1.25"><rect id="rect44" width="30" height="116.9" x="498.9" y="1193.9" class="st0" style="fill:#fff;fill-opacity:1;stroke-width:1.25"/><rect id="rect46" width="30" height="116.9" x="622.9" y="1193.9" class="st0" style="fill:#fff;fill-opacity:1;stroke-width:1.25"/></g><path id="path50" d="m 836.6,1217.3 v -23.4 h -96 c -15.5,0 -28.1,12.6 -28.1,28.1 v 60.7 c 0,15.5 12.6,28.1 28.1,28.1 h 96 v -23.4 h -94.1 v -70.1 z" class="st0" transform="matrix(0.8,0,0,0.8,410.30483,288.9075)" style="fill:#fff;fill-opacity:1;stroke-width:1.25"/><path id="path52" d="m 903.9,1222 v 60.7 c 0,15.5 12.6,28.1 28.1,28.1 h 67.9 c 15.5,0 28.1,-12.6 28.1,-28.1 V 1222 c 0,-15.5 -12.6,-28.1 -28.1,-28.1 H 932 c -15.6,0 -28.1,12.6 -28.1,28.1 z m 94,65.4 h -64.1 v -70.1 h 64.1 z" class="st0" transform="matrix(0.8,0,0,0.8,410.30483,288.9075)" style="fill:#fff;fill-opacity:1;stroke-width:1.25"/><g id="g58" transform="matrix(0.8,0,0,0.8,410.30483,288.9075)" style="fill:#fff;fill-opacity:1;stroke-width:1.25"><rect id="rect54" width="94.1" height="23.4" x="1533.3" y="1240.6" class="st0" style="fill:#fff;fill-opacity:1;stroke-width:1.25"/><path id="path56" d="m 1652.4,1217.3 v -23.4 h -96 c -15.5,0 -28.1,12.6 -28.1,28.1 v 60.7 c 0,15.5 12.6,28.1 28.1,28.1 h 96 v -23.4 h -94.1 v -70.1 z" class="st0" style="fill:#fff;fill-opacity:1;stroke-width:1.25"/></g><g id="g64" transform="matrix(0.8,0,0,0.8,410.30483,288.9075)" style="fill:#fff;fill-opacity:1;stroke-width:1.25"><rect id="rect60" width="70.7" height="23.4" x="1786.5" y="1240.6" class="st0" style="fill:#fff;fill-opacity:1;stroke-width:1.25"/><path id="path62" d="m 1763.2,1217.3 h 94.1 v -23.4 h -96 c -15.5,0 -28.1,12.6 -28.1,28.1 v 60.7 c 0,15.5 12.6,28.1 28.1,28.1 h 67.9 c 15.5,0 28.1,-12.6 28.1,-28.1 v -42.1 h -30 v 46.8 h -64.1 z" class="st0" style="fill:#fff;fill-opacity:1;stroke-width:1.25"/></g><g id="g72" transform="matrix(0.8,0,0,0.8,410.30483,288.9075)" style="fill:#fff;fill-opacity:1;stroke-width:1.25"><rect id="rect66" width="30" height="116.9" x="103.6" y="1193.9" class="st0" style="fill:#fff;fill-opacity:1;stroke-width:1.25"/><rect id="rect68" width="30" height="116.9" x="197.7" y="1193.9" class="st0" style="fill:#fff;fill-opacity:1;stroke-width:1.25"/><polygon id="polygon70" points="224.3 1308 144.4 1193.9 139.2 1193.9 123.5 1204.9 197.7 1310.8 220.3 1310.8" class="st0" style="fill:#fff;fill-opacity:1;stroke-width:1.25"/></g><path id="path74" d="m 3612.7,1222 v 60.7 c 0,15.5 12.6,28.1 28.1,28.1 h 67.9 c 15.5,0 28.1,-12.6 28.1,-28.1 V 1222 c 0,-15.5 -12.6,-28.1 -28.1,-28.1 h -67.9 c -15.5,0 -28.1,12.6 -28.1,28.1 z m 94.1,65.4 h -64.1 v -70.1 h 64.1 z" class="st0" transform="matrix(0.8,0,0,0.8,410.30483,288.9075)" style="fill:#fff;fill-opacity:1;stroke-width:1.25"/><path id="path76" d="m 3414.2,1193.9 v 116.9 h 96 c 15.5,0 28.1,-12.6 28.1,-28.1 V 1222 c 0,-15.5 -12.6,-28.1 -28.1,-28.1 z m 94.1,93.5 h -64.1 v -70.1 h 64.1 z" class="st0" transform="matrix(0.8,0,0,0.8,410.30483,288.9075)" style="fill:#fff;fill-opacity:1;stroke-width:1.25"/><g id="g82" transform="matrix(0.8,0,0,0.8,410.30483,288.9075)" style="fill:#fff;fill-opacity:1;stroke-width:1.25"><rect id="rect78" width="94.1" height="23.4" x="3041" y="1240.6" class="st0" style="fill:#fff;fill-opacity:1;stroke-width:1.25"/><path id="path80" d="m 3165,1217.3 v -23.4 h -96 c -15.5,0 -28.1,12.6 -28.1,28.1 v 60.7 c 0,15.5 12.6,28.1 28.1,28.1 h 96 v -23.4 h -94 v -70.1 z" class="st0" style="fill:#fff;fill-opacity:1;stroke-width:1.25"/></g><g id="g94" transform="matrix(0.8,0,0,0.8,410.30483,288.9075)" style="fill:#fff;fill-opacity:1;stroke-width:1.25"><rect id="rect84" width="40.6" height="23.4" x="2333.6" y="1193.9" class="st0" style="fill:#fff;fill-opacity:1;stroke-width:1.25"/><g id="g92" style="fill:#fff;fill-opacity:1;stroke-width:1.25"><rect id="rect86" width="30" height="116.9" x="2333.6" y="1193.9" class="st0" style="fill:#fff;fill-opacity:1;stroke-width:1.25"/><rect id="rect88" width="30" height="116.9" x="2427.7" y="1193.9" class="st0" style="fill:#fff;fill-opacity:1;stroke-width:1.25"/><polygon id="polygon90" points="2374.4 1193.9 2369.2 1193.9 2353.5 1204.9 2427.7 1310.8 2450.3 1310.8 2454.3 1308" class="st0" style="fill:#fff;fill-opacity:1;stroke-width:1.25"/></g></g><g id="g100" transform="matrix(0.8,0,0,0.8,410.30483,288.9075)" style="fill:#fff;fill-opacity:1;stroke-width:1.25"><g id="g98" style="fill:#fff;fill-opacity:1;stroke-width:1.25"><rect id="rect96" width="30" height="116.9" x="2539.4" y="1193.9" class="st0" style="fill:#fff;fill-opacity:1;stroke-width:1.25"/></g></g><g id="g106" transform="matrix(0.8,0,0,0.8,410.30483,288.9075)" style="fill:#fff;fill-opacity:1;stroke-width:1.25"><g id="g104" style="fill:#fff;fill-opacity:1;stroke-width:1.25"><rect id="rect102" width="30" height="116.9" x="2891.9" y="1193.9" class="st0" style="fill:#fff;fill-opacity:1;stroke-width:1.25"/></g></g><g id="g118" transform="matrix(0.8,0,0,0.8,410.30483,288.9075)" style="fill:#fff;fill-opacity:1;stroke-width:1.25"><rect id="rect108" width="40.6" height="23.4" x="3215.8" y="1193.9" class="st0" style="fill:#fff;fill-opacity:1;stroke-width:1.25"/><g id="g116" style="fill:#fff;fill-opacity:1;stroke-width:1.25"><rect id="rect110" width="30" height="116.9" x="3215.8" y="1193.9" class="st0" style="fill:#fff;fill-opacity:1;stroke-width:1.25"/><rect id="rect112" width="30" height="116.9" x="3309.8" y="1193.9" class="st0" style="fill:#fff;fill-opacity:1;stroke-width:1.25"/><polygon id="polygon114" points="3256.5 1193.9 3251.3 1193.9 3235.6 1204.9 3309.8 1310.8 3332.4 1310.8 3336.4 1308" class="st0" style="fill:#fff;fill-opacity:1;stroke-width:1.25"/></g></g><g id="g130" transform="matrix(0.8,0,0,0.8,410.30483,288.9075)" style="fill:#fff;fill-opacity:1;stroke-width:1.25"><rect id="rect120" width="40.6" height="23.4" x="2653.7" y="1193.9" class="st0" style="fill:#fff;fill-opacity:1;stroke-width:1.25"/><g id="g128" style="fill:#fff;fill-opacity:1;stroke-width:1.25"><rect id="rect122" width="30" height="116.9" x="2653.7" y="1193.9" class="st0" style="fill:#fff;fill-opacity:1;stroke-width:1.25"/><rect id="rect124" width="30" height="116.9" x="2747.7" y="1193.9" class="st0" style="fill:#fff;fill-opacity:1;stroke-width:1.25"/><polygon id="polygon126" points="2694.4 1193.9 2689.2 1193.9 2673.5 1204.9 2747.7 1310.8 2770.3 1310.8 2774.3 1308" class="st0" style="fill:#fff;fill-opacity:1;stroke-width:1.25"/></g></g><polygon id="polygon132" points="561.6 1310.8 590.2 1310.8 630.5 1193.9 605.7 1193.9 575.9 1280.6 546 1193.9 521.3 1193.9" class="st0" transform="matrix(0.8,0,0,0.8,410.30483,288.9075)" style="fill:#fff;fill-opacity:1;stroke-width:1.25"/><rect id="rect134" width="124" height="23.4" x="2844.9" y="1193.9" class="st0" transform="matrix(0.8,0,0,0.8,410.30483,288.9075)" style="fill:#fff;fill-opacity:1;stroke-width:1.25"/><g id="g140" transform="matrix(0.8,0,0,0.8,410.30483,288.9075)" style="fill:#fff;fill-opacity:1;stroke-width:1.25"><polygon id="polygon136" points="2308.6 651.2 1938 0 1567.4 651.2 1672.1 651.2 1938 184 2203.9 651.2" class="st0" style="fill:#fff;fill-opacity:1;stroke-width:1.25"/><polygon id="polygon138" points="1269.6 1358.6 1164.9 1358.6 998.6 1650.9 2877.4 1650.9 2711.1 1358.6 2606.4 1358.6 2720.9 1559.9 1155.1 1559.9" class="st0" style="fill:#fff;fill-opacity:1;stroke-width:1.25"/></g><path id="path142" d="m 1447.6,1217.3 v -23.4 h -96 c -15.5,0 -28.1,12.6 -28.1,28.1 v 14 c 0,15.5 12.6,28.1 28.1,28.1 h 66 v 23.4 h -94.1 v 23.4 h 96 c 15.5,0 28.1,-12.6 28.1,-28.1 v -14 c 0,-15.5 -12.6,-28.1 -28.1,-28.1 h -66 v -23.4 z" class="st0" transform="matrix(0.8,0,0,0.8,410.30483,288.9075)" style="fill:#fff;fill-opacity:1;stroke-width:1.25"/><path id="path144" d="m 732.8,881.4 v 85.9 l 202,169.1 h 152.8 l -187.4,-157 h 36.5 c 50.4,0 91.2,-40.8 91.2,-91.2 v -97.9 c 0,-50.4 -40.8,-91.2 -91.2,-91.2 h -389 v 98.1 339.1 h 124 V 797.2 h 231.6 v 84.2 z" class="st0" transform="matrix(0.8,0,0,0.8,410.30483,288.9075)" style="fill:#fff;fill-opacity:1;stroke-width:1.25"/><path id="path146" d="m 2518.7,881.4 v 85.9 l 202,169.1 h 152.8 L 2686.1,979.5 h 36.5 c 50.4,0 91.2,-40.8 91.2,-91.2 v -97.9 c 0,-50.4 -40.8,-91.2 -91.2,-91.2 h -388.9 v 98.1 339.1 h 124 V 797.2 h 231.6 v 84.2 z" class="st0" transform="matrix(0.8,0,0,0.8,410.30483,288.9075)" style="fill:#fff;fill-opacity:1;stroke-width:1.25"/></g></svg>