<svg xmlns="http://www.w3.org/2000/svg" xmlns:svg="http://www.w3.org/2000/svg" style="clip-rule:evenodd;fill-rule:evenodd;stroke-linejoin:round;stroke-miterlimit:2" id="svg4" width="425.553" height="444" version="1.1" viewBox="0 0 425.553 444" xml:space="preserve"><g id="g4" transform="matrix(1.4513624,0,0,1.9039281,-2831.2639,-158.43268)"><g id="373-436" transform="matrix(0.762611,0,0,0.373573,1258.86,198.577)"><rect style="fill:none" id="rect1" width="337" height="613" x="1002" y="317"/><clipPath id="_clip1"><rect id="rect2" width="337" height="613" x="1002" y="317"/></clipPath><path style="fill:none;stroke:#fff;stroke-width:8" id="rect3" width="417.553" height="436" x="600.656" y="25.189" d="m 605.6557,25.188787 h 407.5534 a 5,5 45 0 1 5,5 V 456.18879 a 5,5 135 0 1 -5,5 l -407.5534,0 a 5,5 45 0 1 -5,-5 V 30.188787 a 5,5 135 0 1 5,-5 z" transform="matrix(0.90348525,0,0,1.4059633,368.21195,-338.60156)"/></g></g></svg>