<svg xmlns="http://www.w3.org/2000/svg" xmlns:svg="http://www.w3.org/2000/svg" style="clip-rule:evenodd;fill-rule:evenodd;stroke-linejoin:round;stroke-miterlimit:2" id="svg14" width="1590" height="1817.999" version="1.1" viewBox="0 0 1590 1817.999"><path style="fill:#111;fill-opacity:.75;stroke-width:1.05935" id="path1" d="M 1590,23.469035 C 1590,10.516345 1579.472,0 1566.507,0 H 23.494 C 10.527,0 0,10.516345 0,23.469035 V 1794.5311 c 0,12.9515 10.527,23.4679 23.494,23.4679 h 1543.013 c 12.965,0 23.493,-10.5164 23.493,-23.4679 z" clip-path="url(#_clip1)"/><rect id="rect1" width="1339.998" height="1" x="124.926" y="159" clip-path="url(#_clip1)"/><rect id="rect2" width="1339.998" height="1" x="124.926" y="259" clip-path="url(#_clip1)"/><rect id="rect3" width="1339.998" height="1" x="124.926" y="359" clip-path="url(#_clip1)"/><rect id="rect4" width="1339.998" height="1" x="124.926" y="459" clip-path="url(#_clip1)"/><rect id="rect5" width="1339.998" height="1" x="124.926" y="559" clip-path="url(#_clip1)"/><rect id="rect6" width="1339.998" height="1" x="124.926" y="659" clip-path="url(#_clip1)"/><rect id="rect7" width="1339.998" height="1" x="124.926" y="759" clip-path="url(#_clip1)"/><rect id="rect8" width="1339.998" height="1" x="124.926" y="859" clip-path="url(#_clip1)"/><rect id="rect9" width="1339.998" height="1" x="124.926" y="959.001" clip-path="url(#_clip1)"/><rect id="rect10" width="1339.998" height="1" x="124.926" y="1058.995" clip-path="url(#_clip1)"/><rect id="rect11" width="1339.998" height="1" x="124.926" y="1158.999" clip-path="url(#_clip1)"/><rect id="rect12" width="1339.998" height="1" x="124.926" y="1259.004" clip-path="url(#_clip1)"/><rect id="rect13" width="1339.998" height="1" x="124.926" y="1358.999" clip-path="url(#_clip1)"/><rect id="rect13-9" width="1339.998" height="1" x="125" y="1458.999" clip-path="url(#_clip1)" style="clip-rule:evenodd;fill-rule:evenodd;stroke-linejoin:round;stroke-miterlimit:2"/><rect id="rect12-8" width="1339.998" height="1" x="125" y="1558.999" clip-path="url(#_clip1)" style="clip-rule:evenodd;fill-rule:evenodd;stroke-linejoin:round;stroke-miterlimit:2"/><rect id="rect13-7" width="1339.998" height="1" x="125" y="1658.999" clip-path="url(#_clip1)" style="clip-rule:evenodd;fill-rule:evenodd;stroke-linejoin:round;stroke-miterlimit:2"/></svg>