<svg xmlns="http://www.w3.org/2000/svg" xmlns:svg="http://www.w3.org/2000/svg" id="svg1" width="133.77" height="92.399" version="1.1" viewBox="0 0 35.393 24.447"><g id="layer1" transform="translate(-36.777083,-84.666667)"><path id="🎨-Color" d="m 118.18326,35.113499 c 25.8632,0 46.82947,20.684296 46.82947,46.199672 0,24.983799 -20.10176,45.335729 -45.21956,46.172879 l -1.60991,0.0268 H 78.072075 c -25.863189,0 -46.829421,-20.6843 -46.829421,-46.199666 0,-24.983806 20.101747,-45.335731 45.219519,-46.172888 l 1.609902,-0.02683 z m -1.65831,49.499645 c -4.61842,0 -8.36238,3.693626 -8.36238,8.249935 0,4.556323 3.74396,8.249951 8.36238,8.249951 4.61843,0 8.36241,-3.693628 8.36241,-8.249951 0,-4.556309 -3.74398,-8.249935 -8.36241,-8.249935 z M 71.367999,61.51331 c -2.540145,0 -4.639403,1.862204 -4.971621,4.278288 l -0.04587,0.671679 v 9.88673 l -10.034854,0.0046 c -2.771059,0 -5.017456,2.216174 -5.017456,4.949963 0,2.505972 1.887598,4.577016 4.336636,4.904779 l 0.68082,0.0452 10.034854,-0.0046 v 9.913133 c 0,2.73379 2.246399,4.949958 5.017439,4.949958 2.540146,0 4.639424,-1.862197 4.971659,-4.278277 l 0.04587,-0.671681 v -9.913139 l 10.034874,0.0046 c 2.771099,0 5.017436,-2.216178 5.017436,-4.949967 0,-2.505973 -1.887557,-4.577006 -4.336595,-4.904779 l -0.680841,-0.0452 -10.034874,-0.0046 v -9.886725 c 0,-2.733791 -2.246378,-4.949967 -5.017477,-4.949969 z m 58.536801,0 c -4.61845,0 -8.36241,3.69362 -8.36241,8.249939 0,4.556317 3.74396,8.249944 8.36241,8.249944 4.61843,0 8.36241,-3.693627 8.36241,-8.249944 0,-4.556319 -3.74398,-8.249939 -8.36241,-8.249939 z" transform="matrix(0.26458333,0,0,0.26458333,28.510798,75.376229)" style="clip-rule:evenodd;fill:#fff;fill-opacity:1;fill-rule:nonzero;stroke:none;stroke-width:6.64477;stroke-linejoin:round;stroke-miterlimit:2"/></g></svg>