<svg xmlns="http://www.w3.org/2000/svg" xmlns:svg="http://www.w3.org/2000/svg" style="clip-rule:evenodd;fill-rule:evenodd;stroke-linejoin:round;stroke-miterlimit:2" id="svg14" width="1590" height="1817.999" version="1.1" viewBox="0 0 1590 1817.999"><path style="opacity:1;fill:#dedede;fill-opacity:.75;stroke-width:1.05935" id="path1" d="M 1590,23.469035 C 1590,10.516344 1579.472,0 1566.507,0 H 23.494 C 10.527,0 0,10.516344 0,23.469035 V 1794.531 c 0,12.9516 10.527,23.468 23.494,23.468 h 1543.013 c 12.965,0 23.493,-10.5164 23.493,-23.468 z" clip-path="url(#_clip1)"/><rect id="rect1-1" width="1339.998" height="1.123" x="124.926" y="178.63" clip-path="url(#_clip1)" transform="matrix(1,0,0,0.71220642,1.2719727e-4,31.77877)" style="clip-rule:evenodd;fill:#514689;fill-opacity:1;fill-rule:evenodd;stroke-width:1.18494;stroke-linejoin:round;stroke-miterlimit:2"/><rect id="rect2-4" width="1339.998" height="1.123" x="124.926" y="290.975" clip-path="url(#_clip1)" transform="matrix(1,0,0,0.71220642,1.2719727e-4,31.77877)" style="clip-rule:evenodd;fill:#514689;fill-opacity:1;fill-rule:evenodd;stroke-width:1.18494;stroke-linejoin:round;stroke-miterlimit:2"/><rect id="rect3-8" width="1339.998" height="1.123" x="124.926" y="403.321" clip-path="url(#_clip1)" transform="matrix(1,0,0,0.71220642,1.2719727e-4,31.77877)" style="clip-rule:evenodd;fill:#514689;fill-opacity:1;fill-rule:evenodd;stroke-width:1.18494;stroke-linejoin:round;stroke-miterlimit:2"/><rect id="rect4-1" width="1339.998" height="1.123" x="124.926" y="515.667" clip-path="url(#_clip1)" transform="matrix(1,0,0,0.71220642,1.2719727e-4,31.77877)" style="clip-rule:evenodd;fill:#514689;fill-opacity:1;fill-rule:evenodd;stroke-width:1.18494;stroke-linejoin:round;stroke-miterlimit:2"/><rect id="rect5-4" width="1339.998" height="1.123" x="124.926" y="628.012" clip-path="url(#_clip1)" transform="matrix(1,0,0,0.71220642,1.2719727e-4,31.77877)" style="clip-rule:evenodd;fill:#514689;fill-opacity:1;fill-rule:evenodd;stroke-width:1.18494;stroke-linejoin:round;stroke-miterlimit:2"/><rect id="rect6-8" width="1339.998" height="1.123" x="124.926" y="740.358" clip-path="url(#_clip1)" transform="matrix(1,0,0,0.71220642,1.2719727e-4,31.77877)" style="clip-rule:evenodd;fill:#514689;fill-opacity:1;fill-rule:evenodd;stroke-width:1.18494;stroke-linejoin:round;stroke-miterlimit:2"/><rect id="rect7-5" width="1339.998" height="1.123" x="124.926" y="852.704" clip-path="url(#_clip1)" transform="matrix(1,0,0,0.71220642,1.2719727e-4,31.77877)" style="clip-rule:evenodd;fill:#514689;fill-opacity:1;fill-rule:evenodd;stroke-width:1.18494;stroke-linejoin:round;stroke-miterlimit:2"/><rect id="rect8-2" width="1339.998" height="1.123" x="124.926" y="965.049" clip-path="url(#_clip1)" transform="matrix(1,0,0,0.71220642,1.2719727e-4,31.77877)" style="clip-rule:evenodd;fill:#514689;fill-opacity:1;fill-rule:evenodd;stroke-width:1.18494;stroke-linejoin:round;stroke-miterlimit:2"/><rect id="rect9-4" width="1339.998" height="1.123" x="124.926" y="1077.396" clip-path="url(#_clip1)" transform="matrix(1,0,0,0.71220642,1.2719727e-4,31.77877)" style="clip-rule:evenodd;fill:#514689;fill-opacity:1;fill-rule:evenodd;stroke-width:1.18494;stroke-linejoin:round;stroke-miterlimit:2"/><rect id="rect10-8" width="1339.998" height="1.123" x="124.926" y="1189.736" clip-path="url(#_clip1)" transform="matrix(1,0,0,0.71220642,1.2719727e-4,31.77877)" style="clip-rule:evenodd;fill:#514689;fill-opacity:1;fill-rule:evenodd;stroke-width:1.18494;stroke-linejoin:round;stroke-miterlimit:2"/><rect id="rect11-5" width="1339.998" height="1.123" x="124.926" y="1302.086" clip-path="url(#_clip1)" transform="matrix(1,0,0,0.71220642,1.2719727e-4,31.77877)" style="clip-rule:evenodd;fill:#514689;fill-opacity:1;fill-rule:evenodd;stroke-width:1.18494;stroke-linejoin:round;stroke-miterlimit:2"/><rect id="rect12-6" width="1339.998" height="1.123" x="124.926" y="1414.437" clip-path="url(#_clip1)" transform="matrix(1,0,0,0.71220642,1.2719727e-4,31.77877)" style="clip-rule:evenodd;fill:#514689;fill-opacity:1;fill-rule:evenodd;stroke-width:1.18494;stroke-linejoin:round;stroke-miterlimit:2"/><rect id="rect13-2" width="1339.998" height="1.123" x="124.926" y="1526.777" clip-path="url(#_clip1)" transform="matrix(1,0,0,0.71220642,1.2719727e-4,31.77877)" style="clip-rule:evenodd;fill:#514689;fill-opacity:1;fill-rule:evenodd;stroke-width:1.18494;stroke-linejoin:round;stroke-miterlimit:2"/><rect id="rect13-9-7" width="1339.998" height="1.123" x="125" y="1639.122" clip-path="url(#_clip1)" transform="matrix(1,0,0,0.71220642,1.2719727e-4,31.77877)" style="clip-rule:evenodd;fill:#514689;fill-opacity:1;fill-rule:evenodd;stroke-width:1.18494;stroke-linejoin:round;stroke-miterlimit:2"/><rect id="rect12-8-4" width="1339.998" height="1.123" x="125" y="1751.468" clip-path="url(#_clip1)" transform="matrix(1,0,0,0.71220642,1.2719727e-4,31.77877)" style="clip-rule:evenodd;fill:#514689;fill-opacity:1;fill-rule:evenodd;stroke-width:1.18494;stroke-linejoin:round;stroke-miterlimit:2"/><rect id="rect13-7-1" width="1339.998" height="1.123" x="125" y="1863.814" clip-path="url(#_clip1)" transform="matrix(1,0,0,0.71220642,1.2719727e-4,31.77877)" style="clip-rule:evenodd;fill:#514689;fill-opacity:1;fill-rule:evenodd;stroke-width:1.18494;stroke-linejoin:round;stroke-miterlimit:2"/><rect id="rect13-2-5" width="1339.998" height="1.123" x="124.926" y="1526.777" clip-path="url(#_clip1)" transform="matrix(1,0,0,0.71220642,1.2719727e-4,351.8281)" style="clip-rule:evenodd;fill:#514689;fill-opacity:1;fill-rule:evenodd;stroke-width:1.18494;stroke-linejoin:round;stroke-miterlimit:2"/><rect id="rect13-9-0" width="1339.998" height="1.123" x="125" y="1639.122" clip-path="url(#_clip1)" transform="matrix(1,0,0,0.71220642,1.2719727e-4,351.8281)" style="clip-rule:evenodd;fill:#514689;fill-opacity:1;fill-rule:evenodd;stroke-width:1.18494;stroke-linejoin:round;stroke-miterlimit:2"/><rect id="rect12-8-0" width="1339.998" height="1.123" x="125" y="1751.468" clip-path="url(#_clip1)" transform="matrix(1,0,0,0.71220642,1.2719727e-4,351.8281)" style="clip-rule:evenodd;fill:#514689;fill-opacity:1;fill-rule:evenodd;stroke-width:1.18494;stroke-linejoin:round;stroke-miterlimit:2"/><rect id="rect13-7-8" width="1339.998" height="1.123" x="125" y="1863.814" clip-path="url(#_clip1)" transform="matrix(1,0,0,0.71220642,1.2719727e-4,351.8281)" style="clip-rule:evenodd;fill:#514689;fill-opacity:1;fill-rule:evenodd;stroke-width:1.18494;stroke-linejoin:round;stroke-miterlimit:2"/></svg>