<svg xmlns="http://www.w3.org/2000/svg" xmlns:svg="http://www.w3.org/2000/svg" style="clip-rule:evenodd;fill-rule:evenodd;stroke-linejoin:round;stroke-miterlimit:2" id="svg18" width="1590" height="1817.999" version="1.1" viewBox="0 0 1590 1817.999" xml:space="preserve"><g id="g18" transform="translate(1.36e-4,-1940.0001)"><g id="g17" transform="matrix(1,0,0,0.89011,0,1940)"><rect id="_16:9-Light" width="1590" height="1820" x="0" y="0" style="display:inline;fill:none"/><g id="g16" clip-path="none" transform="matrix(1,0,0,0.84166622,0,9.8166943e-6)"><g id="g1" transform="matrix(0.991272,0,0,0.995079,-185.368,-177.124)"><path style="fill:#fbf6de;fill-opacity:.74901962;stroke-width:1.1547" id="path1" d="M 1791,209.48134 C 1791,192.10667 1780.38,178 1767.3,178 H 210.701 C 197.62,178 187,192.10667 187,209.48134 V 2585.187 c 0,17.3734 10.62,31.48 23.701,31.48 H 1767.3 c 13.08,0 23.7,-14.1066 23.7,-31.48 z"/></g></g><rect id="rect1-1" width="1339.998" height="1.123" x="124.926" y="178.63" clip-path="url(#_clip1)" transform="matrix(1,0,0,0.80013304,0,35.702178)" style="clip-rule:evenodd;fill:#846d21;fill-opacity:1;fill-rule:evenodd;stroke-width:1.18494;stroke-linejoin:round;stroke-miterlimit:2"/><rect id="rect2-4" width="1339.998" height="1.123" x="124.926" y="290.975" clip-path="url(#_clip1)" transform="matrix(1,0,0,0.80013304,0,35.702178)" style="clip-rule:evenodd;fill:#846d21;fill-opacity:1;fill-rule:evenodd;stroke-width:1.18494;stroke-linejoin:round;stroke-miterlimit:2"/><rect id="rect3-8" width="1339.998" height="1.123" x="124.926" y="403.321" clip-path="url(#_clip1)" transform="matrix(1,0,0,0.80013304,0,35.702178)" style="clip-rule:evenodd;fill:#846d21;fill-opacity:1;fill-rule:evenodd;stroke-width:1.18494;stroke-linejoin:round;stroke-miterlimit:2"/><rect id="rect4-1" width="1339.998" height="1.123" x="124.926" y="515.667" clip-path="url(#_clip1)" transform="matrix(1,0,0,0.80013304,0,35.702178)" style="clip-rule:evenodd;fill:#846d21;fill-opacity:1;fill-rule:evenodd;stroke-width:1.18494;stroke-linejoin:round;stroke-miterlimit:2"/><rect id="rect5-4" width="1339.998" height="1.123" x="124.926" y="628.012" clip-path="url(#_clip1)" transform="matrix(1,0,0,0.80013304,0,35.702178)" style="clip-rule:evenodd;fill:#846d21;fill-opacity:1;fill-rule:evenodd;stroke-width:1.18494;stroke-linejoin:round;stroke-miterlimit:2"/><rect id="rect6-8" width="1339.998" height="1.123" x="124.926" y="740.358" clip-path="url(#_clip1)" transform="matrix(1,0,0,0.80013304,0,35.702178)" style="clip-rule:evenodd;fill:#846d21;fill-opacity:1;fill-rule:evenodd;stroke-width:1.18494;stroke-linejoin:round;stroke-miterlimit:2"/><rect id="rect7-5" width="1339.998" height="1.123" x="124.926" y="852.704" clip-path="url(#_clip1)" transform="matrix(1,0,0,0.80013304,0,35.702178)" style="clip-rule:evenodd;fill:#846d21;fill-opacity:1;fill-rule:evenodd;stroke-width:1.18494;stroke-linejoin:round;stroke-miterlimit:2"/><rect id="rect8-2" width="1339.998" height="1.123" x="124.926" y="965.049" clip-path="url(#_clip1)" transform="matrix(1,0,0,0.80013304,0,35.702178)" style="clip-rule:evenodd;fill:#846d21;fill-opacity:1;fill-rule:evenodd;stroke-width:1.18494;stroke-linejoin:round;stroke-miterlimit:2"/><rect id="rect9-4" width="1339.998" height="1.123" x="124.926" y="1077.396" clip-path="url(#_clip1)" transform="matrix(1,0,0,0.80013304,0,35.702178)" style="clip-rule:evenodd;fill:#846d21;fill-opacity:1;fill-rule:evenodd;stroke-width:1.18494;stroke-linejoin:round;stroke-miterlimit:2"/><rect id="rect10-8" width="1339.998" height="1.123" x="124.926" y="1189.736" clip-path="url(#_clip1)" transform="matrix(1,0,0,0.80013304,0,35.702178)" style="clip-rule:evenodd;fill:#846d21;fill-opacity:1;fill-rule:evenodd;stroke-width:1.18494;stroke-linejoin:round;stroke-miterlimit:2"/><rect id="rect11-5" width="1339.998" height="1.123" x="124.926" y="1302.086" clip-path="url(#_clip1)" transform="matrix(1,0,0,0.80013304,0,35.702178)" style="clip-rule:evenodd;fill:#846d21;fill-opacity:1;fill-rule:evenodd;stroke-width:1.18494;stroke-linejoin:round;stroke-miterlimit:2"/><rect id="rect12-6" width="1339.998" height="1.123" x="124.926" y="1414.437" clip-path="url(#_clip1)" transform="matrix(1,0,0,0.80013304,0,35.702178)" style="clip-rule:evenodd;fill:#846d21;fill-opacity:1;fill-rule:evenodd;stroke-width:1.18494;stroke-linejoin:round;stroke-miterlimit:2"/><rect id="rect13-2" width="1339.998" height="1.123" x="124.926" y="1526.777" clip-path="url(#_clip1)" transform="matrix(1,0,0,0.80013304,0,35.702178)" style="clip-rule:evenodd;fill:#846d21;fill-opacity:1;fill-rule:evenodd;stroke-width:1.18494;stroke-linejoin:round;stroke-miterlimit:2"/><rect id="rect13-9" width="1339.998" height="1.123" x="125" y="1639.122" clip-path="url(#_clip1)" transform="matrix(1,0,0,0.80013304,0,35.702178)" style="clip-rule:evenodd;fill:#846d21;fill-opacity:1;fill-rule:evenodd;stroke-width:1.18494;stroke-linejoin:round;stroke-miterlimit:2"/><rect id="rect12-8" width="1339.998" height="1.123" x="125" y="1751.468" clip-path="url(#_clip1)" transform="matrix(1,0,0,0.80013304,0,35.702178)" style="clip-rule:evenodd;fill:#846d21;fill-opacity:1;fill-rule:evenodd;stroke-width:1.18494;stroke-linejoin:round;stroke-miterlimit:2"/><rect id="rect13-7" width="1339.998" height="1.123" x="125" y="1863.814" clip-path="url(#_clip1)" transform="matrix(1,0,0,0.80013304,0,35.702178)" style="clip-rule:evenodd;fill:#846d21;fill-opacity:1;fill-rule:evenodd;stroke-width:1.18494;stroke-linejoin:round;stroke-miterlimit:2"/><rect id="rect13-2-5" width="1339.998" height="1.123" x="124.926" y="1526.777" clip-path="url(#_clip1)" transform="matrix(1,0,0,0.80013304,-8.8027344e-6,395.26378)" style="clip-rule:evenodd;fill:#846d21;fill-opacity:1;fill-rule:evenodd;stroke-width:1.18494;stroke-linejoin:round;stroke-miterlimit:2"/><rect id="rect13-9-0" width="1339.998" height="1.123" x="125" y="1639.122" clip-path="url(#_clip1)" transform="matrix(1,0,0,0.80013304,-8.8027344e-6,395.26378)" style="clip-rule:evenodd;fill:#846d21;fill-opacity:1;fill-rule:evenodd;stroke-width:1.18494;stroke-linejoin:round;stroke-miterlimit:2"/><rect id="rect12-8-0" width="1339.998" height="1.123" x="125" y="1751.468" clip-path="url(#_clip1)" transform="matrix(1,0,0,0.80013304,-8.8027344e-6,395.26378)" style="clip-rule:evenodd;fill:#846d21;fill-opacity:1;fill-rule:evenodd;stroke-width:1.18494;stroke-linejoin:round;stroke-miterlimit:2"/><rect id="rect13-7-8" width="1339.998" height="1.123" x="125" y="1863.814" clip-path="url(#_clip1)" transform="matrix(1,0,0,0.80013304,-8.8027344e-6,395.26378)" style="clip-rule:evenodd;fill:#846d21;fill-opacity:1;fill-rule:evenodd;stroke-width:1.18494;stroke-linejoin:round;stroke-miterlimit:2"/></g></g></svg>